<svg width="215" height="190" viewBox="0 0 215 190" fill="none" xmlns="http://www.w3.org/2000/svg">
<rect width="215" height="190" rx="40" fill="#F5F5F5"/>
<rect width="215" height="190" rx="40" fill="#F5F5F5"/>
<path d="M32.82 54.3C31.78 54.3 30.8467 54.14 30.02 53.82C29.1933 53.5 28.4933 53.0333 27.92 52.42C27.3467 51.7933 26.9067 51.0333 26.6 50.14C26.2933 49.2467 26.14 48.22 26.14 47.06C26.14 45.9 26.3133 44.8733 26.66 43.98C27.02 43.0867 27.5067 42.3333 28.12 41.72C28.7333 41.0933 29.4533 40.62 30.28 40.3C31.1067 39.98 31.9933 39.82 32.94 39.82C33.5133 39.82 34.0333 39.8667 34.5 39.96C34.9667 40.04 35.3733 40.1333 35.72 40.24C36.0667 40.3467 36.3533 40.46 36.58 40.58C36.8067 40.7 36.9667 40.7867 37.06 40.84L36.32 42.9C36 42.7 35.54 42.5133 34.94 42.34C34.3533 42.1533 33.7133 42.06 33.02 42.06C32.42 42.06 31.86 42.1667 31.34 42.38C30.82 42.58 30.3667 42.8867 29.98 43.3C29.6067 43.7133 29.3133 44.2333 29.1 44.86C28.8867 45.4867 28.78 46.2133 28.78 47.04C28.78 47.7733 28.86 48.4467 29.02 49.06C29.1933 49.6733 29.4533 50.2067 29.8 50.66C30.1467 51.1 30.5867 51.4467 31.12 51.7C31.6533 51.94 32.2933 52.06 33.04 52.06C33.9333 52.06 34.66 51.9733 35.22 51.8C35.78 51.6133 36.2133 51.44 36.52 51.28L37.2 53.34C37.04 53.4467 36.82 53.5533 36.54 53.66C36.2733 53.7667 35.9533 53.8733 35.58 53.98C35.2067 54.0733 34.7867 54.1467 34.32 54.2C33.8533 54.2667 33.3533 54.3 32.82 54.3ZM47.5223 53.68C47.0557 53.8 46.449 53.92 45.7023 54.04C44.9557 54.1733 44.1357 54.24 43.2423 54.24C42.4023 54.24 41.6957 54.12 41.1223 53.88C40.5623 53.64 40.109 53.3067 39.7623 52.88C39.429 52.4533 39.189 51.9467 39.0423 51.36C38.8957 50.76 38.8223 50.1067 38.8223 49.4V43.54H41.2423V49.02C41.2423 50.14 41.4023 50.94 41.7223 51.42C42.0557 51.9 42.629 52.14 43.4423 52.14C43.7357 52.14 44.0423 52.1267 44.3623 52.1C44.6957 52.0733 44.9423 52.04 45.1023 52V43.54H47.5223V53.68ZM56.5625 45.72C56.3625 45.6533 56.0825 45.5867 55.7225 45.52C55.3758 45.44 54.9692 45.4 54.5025 45.4C54.2358 45.4 53.9492 45.4267 53.6425 45.48C53.3492 45.5333 53.1425 45.58 53.0225 45.62V54H50.6025V44.04C51.0692 43.8667 51.6492 43.7067 52.3425 43.56C53.0492 43.4 53.8292 43.32 54.6825 43.32C54.8425 43.32 55.0292 43.3333 55.2425 43.36C55.4558 43.3733 55.6692 43.4 55.8825 43.44C56.0958 43.4667 56.3025 43.5067 56.5025 43.56C56.7025 43.6 56.8625 43.64 56.9825 43.68L56.5625 45.72ZM64.6289 45.72C64.4289 45.6533 64.1489 45.5867 63.7889 45.52C63.4422 45.44 63.0356 45.4 62.5689 45.4C62.3022 45.4 62.0156 45.4267 61.7089 45.48C61.4156 45.5333 61.2089 45.58 61.0889 45.62V54H58.6689V44.04C59.1356 43.8667 59.7156 43.7067 60.4089 43.56C61.1156 43.4 61.8956 43.32 62.7489 43.32C62.9089 43.32 63.0956 43.3333 63.3089 43.36C63.5222 43.3733 63.7356 43.4 63.9489 43.44C64.1622 43.4667 64.3689 43.5067 64.5689 43.56C64.7689 43.6 64.9289 43.64 65.0489 43.68L64.6289 45.72ZM66.1553 48.82C66.1553 47.9 66.2886 47.0933 66.5553 46.4C66.8353 45.7067 67.202 45.1333 67.6553 44.68C68.1086 44.2133 68.6286 43.8667 69.2153 43.64C69.802 43.4 70.402 43.28 71.0153 43.28C72.4553 43.28 73.5753 43.7267 74.3753 44.62C75.1886 45.5133 75.5953 46.8467 75.5953 48.62C75.5953 48.7533 75.5886 48.9067 75.5753 49.08C75.5753 49.24 75.5686 49.3867 75.5553 49.52H68.6553C68.722 50.36 69.0153 51.0133 69.5353 51.48C70.0686 51.9333 70.8353 52.16 71.8353 52.16C72.422 52.16 72.9553 52.1067 73.4353 52C73.9286 51.8933 74.3153 51.78 74.5953 51.66L74.9153 53.64C74.782 53.7067 74.5953 53.78 74.3553 53.86C74.1286 53.9267 73.862 53.9867 73.5553 54.04C73.262 54.1067 72.942 54.16 72.5953 54.2C72.2486 54.24 71.8953 54.26 71.5353 54.26C70.6153 54.26 69.8153 54.1267 69.1353 53.86C68.4553 53.58 67.8953 53.2 67.4553 52.72C67.0153 52.2267 66.6886 51.6533 66.4753 51C66.262 50.3333 66.1553 49.6067 66.1553 48.82ZM73.1753 47.74C73.1753 47.4067 73.1286 47.0933 73.0353 46.8C72.942 46.4933 72.802 46.2333 72.6153 46.02C72.442 45.7933 72.222 45.62 71.9553 45.5C71.702 45.3667 71.3953 45.3 71.0353 45.3C70.662 45.3 70.3353 45.3733 70.0553 45.52C69.7753 45.6533 69.5353 45.8333 69.3353 46.06C69.1486 46.2867 69.002 46.5467 68.8953 46.84C68.7886 47.1333 68.7153 47.4333 68.6753 47.74H73.1753ZM78.1611 43.88C78.6278 43.7467 79.2344 43.62 79.9811 43.5C80.7278 43.38 81.5544 43.32 82.4611 43.32C83.3144 43.32 84.0278 43.44 84.6011 43.68C85.1744 43.9067 85.6278 44.2333 85.9611 44.66C86.3078 45.0733 86.5478 45.58 86.6811 46.18C86.8278 46.7667 86.9011 47.4133 86.9011 48.12V54H84.4811V48.5C84.4811 47.94 84.4411 47.4667 84.3611 47.08C84.2944 46.68 84.1744 46.36 84.0011 46.12C83.8411 45.8667 83.6144 45.6867 83.3211 45.58C83.0411 45.46 82.6944 45.4 82.2811 45.4C81.9744 45.4 81.6544 45.42 81.3211 45.46C80.9878 45.5 80.7411 45.5333 80.5811 45.56V54H78.1611V43.88ZM89.7403 40.78L92.1603 40.38V43.54H95.8803V45.56H92.1603V49.82C92.1603 50.66 92.2936 51.26 92.5603 51.62C92.827 51.98 93.2803 52.16 93.9203 52.16C94.3603 52.16 94.747 52.1133 95.0803 52.02C95.427 51.9267 95.7003 51.84 95.9003 51.76L96.3003 53.68C96.0203 53.8 95.6536 53.92 95.2003 54.04C94.747 54.1733 94.2136 54.24 93.6003 54.24C92.8536 54.24 92.227 54.14 91.7203 53.94C91.227 53.74 90.8336 53.4533 90.5403 53.08C90.247 52.6933 90.0403 52.2333 89.9203 51.7C89.8003 51.1533 89.7403 50.5333 89.7403 49.84V40.78ZM101.86 54.2C101.14 54.1867 100.54 54.1067 100.06 53.96C99.593 53.8133 99.2197 53.6067 98.9397 53.34C98.6597 53.06 98.4597 52.72 98.3397 52.32C98.233 51.9067 98.1797 51.44 98.1797 50.92V38.88L100.6 38.48V50.46C100.6 50.7533 100.62 51 100.66 51.2C100.713 51.4 100.8 51.5733 100.92 51.72C101.04 51.8533 101.2 51.96 101.4 52.04C101.613 52.1067 101.88 52.16 102.2 52.2L101.86 54.2ZM112.697 43.54C111.617 47.5133 110.364 51.1133 108.937 54.34C108.671 54.94 108.397 55.4533 108.117 55.88C107.837 56.3067 107.524 56.66 107.177 56.94C106.831 57.22 106.444 57.42 106.017 57.54C105.591 57.6733 105.097 57.74 104.537 57.74C104.164 57.74 103.791 57.7 103.417 57.62C103.057 57.54 102.784 57.4533 102.597 57.36L103.037 55.42C103.517 55.6067 103.991 55.7 104.457 55.7C105.084 55.7 105.571 55.5467 105.917 55.24C106.277 54.9467 106.591 54.4867 106.857 53.86C106.097 52.3933 105.364 50.7933 104.657 49.06C103.964 47.3267 103.344 45.4867 102.797 43.54H105.377C105.511 44.1 105.671 44.7067 105.857 45.36C106.057 46.0133 106.271 46.68 106.497 47.36C106.724 48.0267 106.964 48.6933 107.217 49.36C107.471 50.0267 107.724 50.6467 107.977 51.22C108.404 50.0333 108.804 48.7733 109.177 47.44C109.551 46.0933 109.891 44.7933 110.197 43.54H112.697ZM121.876 54C121.21 52.6267 120.523 51.0533 119.816 49.28C119.123 47.4933 118.49 45.58 117.916 43.54H120.496C120.643 44.1267 120.81 44.76 120.996 45.44C121.196 46.1067 121.403 46.78 121.616 47.46C121.843 48.1267 122.07 48.78 122.296 49.42C122.536 50.0467 122.756 50.6133 122.956 51.12C123.156 50.6133 123.37 50.0467 123.596 49.42C123.823 48.78 124.043 48.1267 124.256 47.46C124.483 46.78 124.696 46.1067 124.896 45.44C125.096 44.76 125.27 44.1267 125.416 43.54H127.916C127.343 45.58 126.703 47.4933 125.996 49.28C125.303 51.0533 124.623 52.6267 123.956 54H121.876ZM132.164 54H129.744V43.54H132.164V54ZM132.424 40.48C132.424 40.9333 132.277 41.2933 131.984 41.56C131.69 41.8267 131.344 41.96 130.944 41.96C130.53 41.96 130.177 41.8267 129.884 41.56C129.59 41.2933 129.444 40.9333 129.444 40.48C129.444 40.0133 129.59 39.6467 129.884 39.38C130.177 39.1133 130.53 38.98 130.944 38.98C131.344 38.98 131.69 39.1133 131.984 39.38C132.277 39.6467 132.424 40.0133 132.424 40.48ZM134.671 48.82C134.671 47.9 134.804 47.0933 135.071 46.4C135.351 45.7067 135.718 45.1333 136.171 44.68C136.624 44.2133 137.144 43.8667 137.731 43.64C138.318 43.4 138.918 43.28 139.531 43.28C140.971 43.28 142.091 43.7267 142.891 44.62C143.704 45.5133 144.111 46.8467 144.111 48.62C144.111 48.7533 144.104 48.9067 144.091 49.08C144.091 49.24 144.084 49.3867 144.071 49.52H137.171C137.238 50.36 137.531 51.0133 138.051 51.48C138.584 51.9333 139.351 52.16 140.351 52.16C140.938 52.16 141.471 52.1067 141.951 52C142.444 51.8933 142.831 51.78 143.111 51.66L143.431 53.64C143.298 53.7067 143.111 53.78 142.871 53.86C142.644 53.9267 142.378 53.9867 142.071 54.04C141.778 54.1067 141.458 54.16 141.111 54.2C140.764 54.24 140.411 54.26 140.051 54.26C139.131 54.26 138.331 54.1267 137.651 53.86C136.971 53.58 136.411 53.2 135.971 52.72C135.531 52.2267 135.204 51.6533 134.991 51C134.778 50.3333 134.671 49.6067 134.671 48.82ZM141.691 47.74C141.691 47.4067 141.644 47.0933 141.551 46.8C141.458 46.4933 141.318 46.2333 141.131 46.02C140.958 45.7933 140.738 45.62 140.471 45.5C140.218 45.3667 139.911 45.3 139.551 45.3C139.178 45.3 138.851 45.3733 138.571 45.52C138.291 45.6533 138.051 45.8333 137.851 46.06C137.664 46.2867 137.518 46.5467 137.411 46.84C137.304 47.1333 137.231 47.4333 137.191 47.74H141.691ZM152.917 47.42C152.61 48.5933 152.277 49.74 151.917 50.86C151.57 51.9667 151.223 53.0133 150.877 54H148.897C148.63 53.3867 148.35 52.6867 148.057 51.9C147.763 51.1133 147.47 50.2733 147.177 49.38C146.883 48.4867 146.59 47.5467 146.297 46.56C146.003 45.5733 145.717 44.5667 145.437 43.54H147.997C148.117 44.1 148.257 44.7067 148.417 45.36C148.577 46 148.743 46.66 148.917 47.34C149.09 48.0067 149.27 48.66 149.457 49.3C149.643 49.94 149.83 50.5267 150.017 51.06C150.217 50.4467 150.41 49.8133 150.597 49.16C150.797 48.5067 150.983 47.8533 151.157 47.2C151.33 46.5467 151.49 45.9133 151.637 45.3C151.797 44.6733 151.937 44.0867 152.057 43.54H153.917C154.037 44.0867 154.17 44.6733 154.317 45.3C154.463 45.9133 154.617 46.5467 154.777 47.2C154.95 47.8533 155.13 48.5067 155.317 49.16C155.517 49.8133 155.717 50.4467 155.917 51.06C156.09 50.5267 156.27 49.94 156.457 49.3C156.643 48.66 156.823 48.0067 156.997 47.34C157.183 46.66 157.357 46 157.517 45.36C157.677 44.7067 157.817 44.1 157.937 43.54H160.437C160.157 44.5667 159.87 45.5733 159.577 46.56C159.283 47.5467 158.99 48.4867 158.697 49.38C158.403 50.2733 158.11 51.1133 157.817 51.9C157.523 52.6867 157.237 53.3867 156.957 54H154.997C154.65 53.0133 154.29 51.9667 153.917 50.86C153.557 49.74 153.223 48.5933 152.917 47.42ZM164.722 54H162.302V43.54H164.722V54ZM164.982 40.48C164.982 40.9333 164.836 41.2933 164.542 41.56C164.249 41.8267 163.902 41.96 163.502 41.96C163.089 41.96 162.736 41.8267 162.442 41.56C162.149 41.2933 162.002 40.9333 162.002 40.48C162.002 40.0133 162.149 39.6467 162.442 39.38C162.736 39.1133 163.089 38.98 163.502 38.98C163.902 38.98 164.249 39.1133 164.542 39.38C164.836 39.6467 164.982 40.0133 164.982 40.48ZM167.81 43.88C168.276 43.7467 168.883 43.62 169.63 43.5C170.376 43.38 171.203 43.32 172.11 43.32C172.963 43.32 173.676 43.44 174.25 43.68C174.823 43.9067 175.276 44.2333 175.61 44.66C175.956 45.0733 176.196 45.58 176.33 46.18C176.476 46.7667 176.55 47.4133 176.55 48.12V54H174.13V48.5C174.13 47.94 174.09 47.4667 174.01 47.08C173.943 46.68 173.823 46.36 173.65 46.12C173.49 45.8667 173.263 45.6867 172.97 45.58C172.69 45.46 172.343 45.4 171.93 45.4C171.623 45.4 171.303 45.42 170.97 45.46C170.636 45.5 170.39 45.5333 170.23 45.56V54H167.81V43.88ZM181.409 48.5C181.409 49.5267 181.629 50.28 182.069 50.76C182.522 51.2267 183.102 51.46 183.809 51.46C184.195 51.46 184.555 51.4067 184.889 51.3C185.235 51.1933 185.515 51.0667 185.729 50.92V45.5C185.555 45.46 185.342 45.4267 185.089 45.4C184.835 45.36 184.515 45.34 184.129 45.34C183.249 45.34 182.575 45.6333 182.109 46.22C181.642 46.7933 181.409 47.5533 181.409 48.5ZM188.149 52.94C188.149 54.6067 187.722 55.8267 186.869 56.6C186.029 57.3733 184.735 57.76 182.989 57.76C182.349 57.76 181.722 57.7067 181.109 57.6C180.509 57.4933 179.962 57.3533 179.469 57.18L179.909 55.12C180.322 55.2933 180.789 55.4333 181.309 55.54C181.842 55.6467 182.415 55.7 183.029 55.7C184.002 55.7 184.695 55.5 185.109 55.1C185.522 54.7 185.729 54.1067 185.729 53.32V52.92C185.489 53.04 185.169 53.16 184.769 53.28C184.382 53.4 183.935 53.46 183.429 53.46C182.762 53.46 182.149 53.3533 181.589 53.14C181.042 52.9267 180.569 52.6133 180.169 52.2C179.782 51.7867 179.475 51.2733 179.249 50.66C179.035 50.0333 178.929 49.3133 178.929 48.5C178.929 47.74 179.042 47.04 179.269 46.4C179.509 45.76 179.849 45.2133 180.289 44.76C180.742 44.3067 181.289 43.9533 181.929 43.7C182.569 43.4467 183.295 43.32 184.109 43.32C184.895 43.32 185.642 43.38 186.349 43.5C187.055 43.62 187.655 43.7467 188.149 43.88V52.94Z" fill="#5B5958"/>
<path d="M151 77H105.642C102.99 77 100.446 75.9464 98.5711 74.0711L93.4289 68.9289C91.5536 67.0536 89.01 66 86.3579 66H63C56.95 66 52 70.95 52 77V89C52 94.5228 56.4772 99 62 99H152C157.523 99 162 94.5228 162 89V88C162 81.95 157.05 77 151 77Z" fill="#ADACAC"/>
<path d="M151.143 82.5715H63.1429C57.0929 82.5715 52.1429 87.5215 52.1429 93.5715V148.572C52.1429 154.622 57.0929 159.572 63.1429 159.572H151.143C157.193 159.572 162.143 154.622 162.143 148.572V93.5715C162.143 87.5215 157.193 82.5715 151.143 82.5715Z" fill="#C9C7C5"/>
<path d="M71.34 124C71.15 123.49 70.97 123 70.8 122.53C70.63 122.06 70.465 121.6 70.305 121.15H65.25C65.08 121.6 64.91 122.06 64.74 122.53C64.57 123 64.395 123.49 64.215 124H63.15C63.55 122.92 63.925 121.915 64.275 120.985C64.625 120.045 64.965 119.16 65.295 118.33C65.635 117.49 65.97 116.685 66.3 115.915C66.63 115.145 66.98 114.375 67.35 113.605H68.25C68.62 114.375 68.97 115.145 69.3 115.915C69.63 116.685 69.96 117.49 70.29 118.33C70.63 119.16 70.975 120.045 71.325 120.985C71.675 121.915 72.055 122.92 72.465 124H71.34ZM67.77 114.775C67.39 115.635 67.02 116.51 66.66 117.4C66.31 118.29 65.945 119.25 65.565 120.28H69.99C69.61 119.25 69.24 118.29 68.88 117.4C68.52 116.51 68.15 115.635 67.77 114.775ZM78.1622 124.225C77.4922 124.225 76.8672 124.105 76.2872 123.865C75.7172 123.625 75.2172 123.275 74.7872 122.815C74.3672 122.355 74.0322 121.79 73.7822 121.12C73.5422 120.44 73.4222 119.665 73.4222 118.795C73.4222 117.925 73.5522 117.155 73.8122 116.485C74.0822 115.805 74.4372 115.235 74.8772 114.775C75.3172 114.315 75.8272 113.97 76.4072 113.74C76.9872 113.5 77.5922 113.38 78.2222 113.38C78.6122 113.38 78.9672 113.405 79.2872 113.455C79.6072 113.505 79.8872 113.57 80.1272 113.65C80.3672 113.72 80.5722 113.795 80.7422 113.875C80.9122 113.945 81.0422 114.01 81.1322 114.07L80.8022 114.955C80.5522 114.805 80.2322 114.66 79.8422 114.52C79.4622 114.37 78.9872 114.295 78.4172 114.295C77.7672 114.295 77.1972 114.405 76.7072 114.625C76.2272 114.845 75.8222 115.155 75.4922 115.555C75.1622 115.955 74.9122 116.43 74.7422 116.98C74.5822 117.53 74.5022 118.14 74.5022 118.81C74.5022 119.5 74.5822 120.125 74.7422 120.685C74.9122 121.235 75.1572 121.705 75.4772 122.095C75.7972 122.485 76.1872 122.785 76.6472 122.995C77.1172 123.205 77.6522 123.31 78.2522 123.31C78.9122 123.31 79.4622 123.25 79.9022 123.13C80.3522 123 80.6922 122.87 80.9222 122.74L81.2072 123.61C81.1372 123.66 81.0172 123.72 80.8472 123.79C80.6772 123.85 80.4622 123.915 80.2022 123.985C79.9422 124.055 79.6422 124.11 79.3022 124.15C78.9622 124.2 78.5822 124.225 78.1622 124.225ZM87.171 124.225C86.501 124.225 85.876 124.105 85.296 123.865C84.726 123.625 84.226 123.275 83.796 122.815C83.376 122.355 83.041 121.79 82.791 121.12C82.551 120.44 82.431 119.665 82.431 118.795C82.431 117.925 82.561 117.155 82.821 116.485C83.091 115.805 83.446 115.235 83.886 114.775C84.326 114.315 84.836 113.97 85.416 113.74C85.996 113.5 86.601 113.38 87.231 113.38C87.621 113.38 87.976 113.405 88.296 113.455C88.616 113.505 88.896 113.57 89.136 113.65C89.376 113.72 89.581 113.795 89.751 113.875C89.921 113.945 90.051 114.01 90.141 114.07L89.811 114.955C89.561 114.805 89.241 114.66 88.851 114.52C88.471 114.37 87.996 114.295 87.426 114.295C86.776 114.295 86.206 114.405 85.716 114.625C85.236 114.845 84.831 115.155 84.501 115.555C84.171 115.955 83.921 116.43 83.751 116.98C83.591 117.53 83.511 118.14 83.511 118.81C83.511 119.5 83.591 120.125 83.751 120.685C83.921 121.235 84.166 121.705 84.486 122.095C84.806 122.485 85.196 122.785 85.656 122.995C86.126 123.205 86.661 123.31 87.261 123.31C87.921 123.31 88.471 123.25 88.911 123.13C89.361 123 89.701 122.87 89.931 122.74L90.216 123.61C90.146 123.66 90.026 123.72 89.856 123.79C89.686 123.85 89.471 123.915 89.211 123.985C88.951 124.055 88.651 124.11 88.311 124.15C87.971 124.2 87.591 124.225 87.171 124.225ZM91.9916 124V113.605H97.9916V114.49H93.0116V118.105H97.4516V118.975H93.0116V123.115H98.3816V124H91.9916ZM102.547 123.34C103.357 123.34 103.987 123.195 104.437 122.905C104.887 122.605 105.112 122.125 105.112 121.465C105.112 121.085 105.037 120.77 104.887 120.52C104.747 120.26 104.557 120.045 104.317 119.875C104.077 119.695 103.802 119.545 103.492 119.425C103.182 119.295 102.857 119.16 102.517 119.02C102.087 118.85 101.702 118.675 101.362 118.495C101.022 118.315 100.732 118.115 100.492 117.895C100.252 117.665 100.067 117.405 99.9369 117.115C99.8169 116.825 99.7569 116.485 99.7569 116.095C99.7569 115.205 100.052 114.53 100.642 114.07C101.232 113.61 102.052 113.38 103.102 113.38C103.382 113.38 103.657 113.4 103.927 113.44C104.197 113.48 104.447 113.535 104.677 113.605C104.917 113.665 105.132 113.735 105.322 113.815C105.522 113.895 105.687 113.98 105.817 114.07L105.457 114.925C105.167 114.725 104.812 114.565 104.392 114.445C103.982 114.325 103.537 114.265 103.057 114.265C102.727 114.265 102.422 114.3 102.142 114.37C101.872 114.43 101.637 114.535 101.437 114.685C101.237 114.825 101.077 115.005 100.957 115.225C100.847 115.445 100.792 115.71 100.792 116.02C100.792 116.34 100.852 116.61 100.972 116.83C101.092 117.05 101.257 117.24 101.467 117.4C101.687 117.56 101.942 117.705 102.232 117.835C102.522 117.965 102.837 118.1 103.177 118.24C103.587 118.41 103.972 118.58 104.332 118.75C104.702 118.92 105.022 119.12 105.292 119.35C105.562 119.58 105.777 119.86 105.937 120.19C106.097 120.52 106.177 120.925 106.177 121.405C106.177 122.345 105.847 123.05 105.187 123.52C104.537 123.99 103.652 124.225 102.532 124.225C102.132 124.225 101.767 124.2 101.437 124.15C101.107 124.1 100.812 124.04 100.552 123.97C100.292 123.89 100.072 123.81 99.8919 123.73C99.7119 123.65 99.5719 123.58 99.4719 123.52L99.8019 122.635C99.9019 122.695 100.037 122.765 100.207 122.845C100.377 122.925 100.577 123.005 100.807 123.085C101.037 123.155 101.297 123.215 101.587 123.265C101.877 123.315 102.197 123.34 102.547 123.34ZM110.296 123.34C111.106 123.34 111.736 123.195 112.186 122.905C112.636 122.605 112.861 122.125 112.861 121.465C112.861 121.085 112.786 120.77 112.636 120.52C112.496 120.26 112.306 120.045 112.066 119.875C111.826 119.695 111.551 119.545 111.241 119.425C110.931 119.295 110.606 119.16 110.266 119.02C109.836 118.85 109.451 118.675 109.111 118.495C108.771 118.315 108.481 118.115 108.241 117.895C108.001 117.665 107.816 117.405 107.686 117.115C107.566 116.825 107.506 116.485 107.506 116.095C107.506 115.205 107.801 114.53 108.391 114.07C108.981 113.61 109.801 113.38 110.851 113.38C111.131 113.38 111.406 113.4 111.676 113.44C111.946 113.48 112.196 113.535 112.426 113.605C112.666 113.665 112.881 113.735 113.071 113.815C113.271 113.895 113.436 113.98 113.566 114.07L113.206 114.925C112.916 114.725 112.561 114.565 112.141 114.445C111.731 114.325 111.286 114.265 110.806 114.265C110.476 114.265 110.171 114.3 109.891 114.37C109.621 114.43 109.386 114.535 109.186 114.685C108.986 114.825 108.826 115.005 108.706 115.225C108.596 115.445 108.541 115.71 108.541 116.02C108.541 116.34 108.601 116.61 108.721 116.83C108.841 117.05 109.006 117.24 109.216 117.4C109.436 117.56 109.691 117.705 109.981 117.835C110.271 117.965 110.586 118.1 110.926 118.24C111.336 118.41 111.721 118.58 112.081 118.75C112.451 118.92 112.771 119.12 113.041 119.35C113.311 119.58 113.526 119.86 113.686 120.19C113.846 120.52 113.926 120.925 113.926 121.405C113.926 122.345 113.596 123.05 112.936 123.52C112.286 123.99 111.401 124.225 110.281 124.225C109.881 124.225 109.516 124.2 109.186 124.15C108.856 124.1 108.561 124.04 108.301 123.97C108.041 123.89 107.821 123.81 107.641 123.73C107.461 123.65 107.321 123.58 107.221 123.52L107.551 122.635C107.651 122.695 107.786 122.765 107.956 122.845C108.126 122.925 108.326 123.005 108.556 123.085C108.786 123.155 109.046 123.215 109.336 123.265C109.626 123.315 109.946 123.34 110.296 123.34ZM125.14 118.795C125.14 119.685 125.01 120.47 124.75 121.15C124.49 121.83 124.135 122.4 123.685 122.86C123.245 123.31 122.73 123.65 122.14 123.88C121.55 124.11 120.925 124.225 120.265 124.225C119.605 124.225 118.98 124.11 118.39 123.88C117.8 123.65 117.28 123.31 116.83 122.86C116.39 122.4 116.04 121.83 115.78 121.15C115.52 120.47 115.39 119.685 115.39 118.795C115.39 117.905 115.52 117.125 115.78 116.455C116.04 115.775 116.39 115.21 116.83 114.76C117.28 114.3 117.8 113.955 118.39 113.725C118.98 113.495 119.605 113.38 120.265 113.38C120.925 113.38 121.55 113.495 122.14 113.725C122.73 113.955 123.245 114.3 123.685 114.76C124.135 115.21 124.49 115.775 124.75 116.455C125.01 117.125 125.14 117.905 125.14 118.795ZM124.06 118.795C124.06 118.095 123.97 117.47 123.79 116.92C123.61 116.36 123.355 115.885 123.025 115.495C122.695 115.105 122.295 114.81 121.825 114.61C121.365 114.4 120.845 114.295 120.265 114.295C119.685 114.295 119.16 114.4 118.69 114.61C118.23 114.81 117.835 115.105 117.505 115.495C117.175 115.885 116.92 116.36 116.74 116.92C116.56 117.47 116.47 118.095 116.47 118.795C116.47 119.495 116.56 120.125 116.74 120.685C116.92 121.235 117.175 121.705 117.505 122.095C117.835 122.485 118.23 122.785 118.69 122.995C119.16 123.205 119.685 123.31 120.265 123.31C120.845 123.31 121.365 123.205 121.825 122.995C122.295 122.785 122.695 122.485 123.025 122.095C123.355 121.705 123.61 121.235 123.79 120.685C123.97 120.125 124.06 119.495 124.06 118.795ZM134.356 116.725C134.356 117.505 134.151 118.12 133.741 118.57C133.331 119.02 132.791 119.345 132.121 119.545C132.281 119.745 132.486 120.015 132.736 120.355C132.996 120.695 133.261 121.07 133.531 121.48C133.801 121.88 134.066 122.3 134.326 122.74C134.586 123.18 134.806 123.6 134.986 124H133.891C133.681 123.6 133.451 123.2 133.201 122.8C132.961 122.4 132.711 122.015 132.451 121.645C132.201 121.265 131.956 120.915 131.716 120.595C131.476 120.275 131.266 119.995 131.086 119.755C130.766 119.785 130.446 119.8 130.126 119.8H128.446V124H127.426V113.8C127.786 113.7 128.206 113.63 128.686 113.59C129.176 113.54 129.626 113.515 130.036 113.515C131.466 113.515 132.541 113.785 133.261 114.325C133.991 114.865 134.356 115.665 134.356 116.725ZM130.156 114.4C129.776 114.4 129.441 114.415 129.151 114.445C128.871 114.465 128.636 114.485 128.446 114.505V118.93H129.856C130.326 118.93 130.771 118.91 131.191 118.87C131.611 118.82 131.976 118.72 132.286 118.57C132.596 118.41 132.841 118.185 133.021 117.895C133.201 117.605 133.291 117.21 133.291 116.71C133.291 116.25 133.201 115.87 133.021 115.57C132.841 115.27 132.606 115.035 132.316 114.865C132.026 114.685 131.691 114.565 131.311 114.505C130.941 114.435 130.556 114.4 130.156 114.4ZM136.699 113.605H137.719V124H136.699V113.605ZM140.419 124V113.605H146.419V114.49H141.439V118.105H145.879V118.975H141.439V123.115H146.809V124H140.419ZM150.975 123.34C151.785 123.34 152.415 123.195 152.865 122.905C153.315 122.605 153.54 122.125 153.54 121.465C153.54 121.085 153.465 120.77 153.315 120.52C153.175 120.26 152.985 120.045 152.745 119.875C152.505 119.695 152.23 119.545 151.92 119.425C151.61 119.295 151.285 119.16 150.945 119.02C150.515 118.85 150.13 118.675 149.79 118.495C149.45 118.315 149.16 118.115 148.92 117.895C148.68 117.665 148.495 117.405 148.365 117.115C148.245 116.825 148.185 116.485 148.185 116.095C148.185 115.205 148.48 114.53 149.07 114.07C149.66 113.61 150.48 113.38 151.53 113.38C151.81 113.38 152.085 113.4 152.355 113.44C152.625 113.48 152.875 113.535 153.105 113.605C153.345 113.665 153.56 113.735 153.75 113.815C153.95 113.895 154.115 113.98 154.245 114.07L153.885 114.925C153.595 114.725 153.24 114.565 152.82 114.445C152.41 114.325 151.965 114.265 151.485 114.265C151.155 114.265 150.85 114.3 150.57 114.37C150.3 114.43 150.065 114.535 149.865 114.685C149.665 114.825 149.505 115.005 149.385 115.225C149.275 115.445 149.22 115.71 149.22 116.02C149.22 116.34 149.28 116.61 149.4 116.83C149.52 117.05 149.685 117.24 149.895 117.4C150.115 117.56 150.37 117.705 150.66 117.835C150.95 117.965 151.265 118.1 151.605 118.24C152.015 118.41 152.4 118.58 152.76 118.75C153.13 118.92 153.45 119.12 153.72 119.35C153.99 119.58 154.205 119.86 154.365 120.19C154.525 120.52 154.605 120.925 154.605 121.405C154.605 122.345 154.275 123.05 153.615 123.52C152.965 123.99 152.08 124.225 150.96 124.225C150.56 124.225 150.195 124.2 149.865 124.15C149.535 124.1 149.24 124.04 148.98 123.97C148.72 123.89 148.5 123.81 148.32 123.73C148.14 123.65 148 123.58 147.9 123.52L148.23 122.635C148.33 122.695 148.465 122.765 148.635 122.845C148.805 122.925 149.005 123.005 149.235 123.085C149.465 123.155 149.725 123.215 150.015 123.265C150.305 123.315 150.625 123.34 150.975 123.34Z" fill="#5B5958"/>
</svg>
